<svg width="75" height="75" viewBox="0 0 75 75" fill="none" xmlns="http://www.w3.org/2000/svg">
<mask id="mask0_6_39" style="mask-type:alpha" maskUnits="userSpaceOnUse" x="0" y="4" width="75" height="69">
<path d="M1.91487 45.6651L13.497 65.8046V65.7799C14.7591 67.9606 16.5696 69.7713 18.7478 71.0315C20.926 72.2916 23.3957 72.9572 25.9105 72.9617H49.0895C51.6044 72.9577 54.0743 72.2923 56.2526 71.0321C58.4309 69.7719 60.2413 67.9609 61.5031 65.7799L73.0851 45.6651C74.3397 43.4796 75 41.0023 75 38.4808C75 35.9593 74.3397 33.482 73.0851 31.2966L61.5031 11.1818C60.24 8.99859 58.4273 7.18619 56.2462 5.92585C54.0651 4.6655 51.5922 4.00141 49.0747 4H25.9105C23.3957 4.0045 20.926 4.67002 18.7478 5.93019C16.5696 7.19035 14.7591 9.0011 13.497 11.1818L1.91487 31.2966C0.660299 33.482 0 35.9593 0 38.4808C0 41.0023 0.660299 43.4796 1.91487 45.6651Z" fill="#00DC82"/>
</mask>
<g mask="url(#mask0_6_39)">
<path d="M1.91487 45.6651L13.497 65.8046V65.7799C14.7591 67.9606 16.5696 69.7713 18.7478 71.0315C20.926 72.2916 23.3957 72.9572 25.9105 72.9617H49.0895C51.6044 72.9577 54.0743 72.2923 56.2526 71.0321C58.4309 69.7719 60.2413 67.9609 61.5031 65.7799L73.0851 45.6651C74.3397 43.4796 75 41.0023 75 38.4808C75 35.9593 74.3397 33.482 73.0851 31.2966L61.5031 11.1818C60.24 8.99859 58.4273 7.18619 56.2462 5.92585C54.0651 4.6655 51.5922 4.00141 49.0747 4H25.9105C23.3957 4.0045 20.926 4.67002 18.7478 5.93019C16.5696 7.19035 14.7591 9.0011 13.497 11.1818L1.91487 31.2966C0.660299 33.482 0 35.9593 0 38.4808C0 41.0023 0.660299 43.4796 1.91487 45.6651Z" fill="#087EA4"/>
<path opacity="0.3" d="M-1.08513 45.6651L10.497 65.8046V65.7799C11.7591 67.9606 13.5696 69.7713 15.7478 71.0315C17.926 72.2916 20.3957 72.9572 22.9105 72.9617H46.0895C48.6044 72.9577 51.0743 72.2923 53.2526 71.0321C55.4309 69.7719 57.2413 67.9609 58.5031 65.7799L70.0851 45.6651C71.3397 43.4796 72 41.0023 72 38.4808C72 35.9593 71.3397 33.482 70.0851 31.2966L58.5031 11.1818C57.24 8.99859 55.4273 7.18619 53.2462 5.92585C51.0651 4.6655 48.5922 4.00141 46.0747 4H22.9105C20.3957 4.00449 17.926 4.67002 15.7478 5.93019C13.5696 7.19035 11.7591 9.0011 10.497 11.1818L-1.08513 31.2966C-2.3397 33.482 -3 35.9593 -3 38.4808C-3 41.0023 -2.3397 43.4796 -1.08513 45.6651Z" fill="white"/>
</g>
<path d="M41.7334 8.65C38.5383 8.98 35.3988 11.815 32.9122 16.625C32.3739 17.665 31.6584 19.285 31.6063 19.585C31.5855 19.69 31.6619 20.265 31.7314 20.52C31.7522 20.605 31.9085 20.785 32.1863 21.05L32.6065 21.45H32.8774C33.0302 21.45 33.19 21.425 33.2317 21.395C33.2768 21.37 33.44 21.08 33.5894 20.76C34.798 18.21 36.0031 16.32 37.3228 14.9C38.2362 13.92 39.1218 13.305 39.9553 13.065C40.3651 12.95 41.1013 12.95 41.4729 13.07C41.8688 13.195 42.4037 13.585 42.6676 13.94C43.0184 14.41 43.3518 15.33 43.4942 16.215C43.5845 16.79 43.5741 18.29 43.4733 19.12C42.9976 23.015 41.0492 26.565 37.5312 29.935C36.1107 31.3 34.1346 32.85 32.3009 34.045C31.9918 34.245 31.707 34.44 31.6688 34.48C31.6306 34.515 31.5508 34.74 31.4952 34.97C31.391 35.38 31.3875 35.39 31.4396 35.68C31.5265 36.165 31.6619 36.74 31.707 36.79C31.7314 36.82 31.9189 36.935 32.1273 37.045L32.5024 37.255L32.6829 37.18C32.9712 37.06 35.2078 36.215 35.4509 36.135C36.1142 35.915 36.84 35.825 37.427 35.895C38.316 36 38.903 36.23 39.5767 36.725C40.5387 37.43 41.2819 38.525 41.7681 39.94C42.2717 41.39 42.4037 42.81 42.2509 45.025C41.9765 49.01 40.5214 53.66 38.4584 57.13C37.3158 59.05 36.3052 60.23 34.9612 61.2C34.3048 61.675 33.3428 62.165 32.7073 62.35C32.2176 62.49 31.2243 62.565 30.297 62.535C29.4288 62.505 29.0364 62.44 28.2758 62.195C27.1263 61.83 26.7303 61.665 25.9281 61.22L25.7649 61.13L25.5113 61.27C25.3099 61.38 25.2057 61.48 25.0355 61.72C24.9175 61.885 24.7785 62.11 24.7299 62.21C24.6431 62.39 24.6431 62.4 24.6848 62.785C24.7508 63.415 24.7612 63.435 25.1918 63.785C26.1156 64.54 26.8484 64.94 28.1195 65.375C29.4114 65.815 30.2658 65.96 31.6272 65.96C33.2872 65.965 34.7632 65.625 36.4441 64.845C38.1875 64.04 40.2574 62.38 41.7334 60.61C42.1432 60.12 43.0427 58.86 43.5532 58.06C46.0989 54.08 47.5124 50.195 47.8284 46.325C47.8874 45.585 47.8979 44.045 47.8458 43.375C47.6409 40.725 46.9497 38.645 45.6682 36.845C44.6923 35.47 43.4143 34.365 41.9522 33.635C41.1569 33.235 39.8198 32.8 39.1357 32.715C38.9967 32.7 38.8752 32.67 38.8682 32.65C38.8578 32.63 38.9412 32.56 39.0523 32.495C39.4517 32.265 40.8304 31.33 41.4382 30.875C43.581 29.28 45.0431 27.835 46.2621 26.11C47.6339 24.17 48.4327 22.165 48.7626 19.85C48.9745 18.355 48.9779 16.795 48.7765 15.375C48.2035 11.31 45.8975 8.81 42.5669 8.635C42.3273 8.62 41.9522 8.63 41.7334 8.65Z" fill="#087EA4"/>
</svg>
