<svg width="75" height="75" viewBox="0 0 75 75" fill="none" xmlns="http://www.w3.org/2000/svg">
<mask id="mask0_6_39" style="mask-type:alpha" maskUnits="userSpaceOnUse" x="0" y="4" width="75" height="69">
<path d="M1.91487 45.6651L13.497 65.8046V65.7799C14.7591 67.9606 16.5696 69.7713 18.7478 71.0315C20.926 72.2916 23.3957 72.9572 25.9105 72.9617H49.0895C51.6044 72.9577 54.0743 72.2923 56.2526 71.0321C58.4309 69.7719 60.2413 67.9609 61.5031 65.7799L73.0851 45.6651C74.3397 43.4796 75 41.0023 75 38.4808C75 35.9593 74.3397 33.482 73.0851 31.2966L61.5031 11.1818C60.24 8.99859 58.4273 7.18619 56.2462 5.92585C54.0651 4.6655 51.5922 4.00141 49.0747 4H25.9105C23.3957 4.0045 20.926 4.67002 18.7478 5.93019C16.5696 7.19035 14.7591 9.0011 13.497 11.1818L1.91487 31.2966C0.660299 33.482 0 35.9593 0 38.4808C0 41.0023 0.660299 43.4796 1.91487 45.6651Z" fill="#00DC82"/>
</mask>
<g mask="url(#mask0_6_39)">
<path d="M1.91487 45.6651L13.497 65.8046V65.7799C14.7591 67.9606 16.5696 69.7713 18.7478 71.0315C20.926 72.2916 23.3957 72.9572 25.9105 72.9617H49.0895C51.6044 72.9577 54.0743 72.2923 56.2526 71.0321C58.4309 69.7719 60.2413 67.9609 61.5031 65.7799L73.0851 45.6651C74.3397 43.4796 75 41.0023 75 38.4808C75 35.9593 74.3397 33.482 73.0851 31.2966L61.5031 11.1818C60.24 8.99859 58.4273 7.18619 56.2462 5.92585C54.0651 4.6655 51.5922 4.00141 49.0747 4H25.9105C23.3957 4.0045 20.926 4.67002 18.7478 5.93019C16.5696 7.19035 14.7591 9.0011 13.497 11.1818L1.91487 31.2966C0.660299 33.482 0 35.9593 0 38.4808C0 41.0023 0.660299 43.4796 1.91487 45.6651Z" fill="#087EA4"/>
<path opacity="0.3" d="M-1.08513 45.6651L10.497 65.8046V65.7799C11.7591 67.9606 13.5696 69.7713 15.7478 71.0315C17.926 72.2916 20.3957 72.9572 22.9105 72.9617H46.0895C48.6044 72.9577 51.0743 72.2923 53.2526 71.0321C55.4309 69.7719 57.2413 67.9609 58.5031 65.7799L70.0851 45.6651C71.3397 43.4796 72 41.0023 72 38.4808C72 35.9593 71.3397 33.482 70.0851 31.2966L58.5031 11.1818C57.24 8.99859 55.4273 7.18619 53.2462 5.92585C51.0651 4.6655 48.5922 4.00141 46.0747 4H22.9105C20.3957 4.00449 17.926 4.67002 15.7478 5.93019C13.5696 7.19035 11.7591 9.0011 10.497 11.1818L-1.08513 31.2966C-2.3397 33.482 -3 35.9593 -3 38.4808C-3 41.0023 -2.3397 43.4796 -1.08513 45.6651Z" fill="white"/>
<path d="M32.0475 33.9161C29.2721 31.1348 25.3786 29.3623 22.1103 32.4166C21.0422 33.4117 20.2778 34.7661 19.9421 36.2172C19.542 37.9378 19.8421 39.5098 20.5815 40.8055C21.2387 41.9595 22.2424 42.9027 23.4247 43.5523C24.6106 44.2053 25.9608 44.5577 27.3003 44.5197C28.772 44.4782 30.2436 43.953 31.4795 42.8232C33.2262 41.2236 34.7514 38.8327 36.241 36.5005C37.8698 33.9507 39.4557 31.4665 41.4024 29.7873C42.7919 28.5884 44.2779 27.8145 45.7852 27.3895C47.9499 26.7814 50.1145 26.9162 52.0826 27.5795C54.0186 28.2291 55.7546 29.3831 57.0905 30.8342C58.2264 32.0642 59.0908 33.5291 59.5623 35.0943C60.2481 37.3746 59.8338 40.1076 58.5836 42.4985C57.6977 44.188 56.3833 45.7393 54.733 46.8587C53.0363 48.0093 50.9932 48.7037 48.7071 48.6381C46.0924 48.5621 43.2063 47.4979 40.2308 44.9757L42.7062 42.2393C44.9601 44.15 47.0211 44.9516 48.8107 45.0034C50.2323 45.0448 51.5111 44.6061 52.5827 43.8805C53.7007 43.1238 54.6044 42.0493 55.2259 40.8608C56.0689 39.2507 56.369 37.4921 55.9546 36.1101C55.6474 35.0874 55.0616 34.1096 54.2794 33.2596C53.3507 32.2508 52.1648 31.4561 50.8646 31.0173C49.5965 30.5923 48.207 30.4991 46.8354 30.886C45.8603 31.159 44.8708 31.6841 43.91 32.5134C42.349 33.8608 40.9131 36.1066 39.4414 38.4146C37.8198 40.9541 36.1588 43.5557 34.0728 45.4629C32.1153 47.2561 29.7614 48.0887 27.4039 48.1579C25.3643 48.2166 23.3319 47.6949 21.5673 46.7205C19.7956 45.7462 18.2811 44.3158 17.281 42.5607C16.1237 40.5325 15.6557 38.0829 16.2737 35.4191C16.7702 33.2838 17.9096 31.2834 19.5063 29.7942C20.5815 28.7923 21.8638 28.0149 23.3033 27.5761C24.7535 27.1338 26.3466 27.0405 28.0326 27.4068C30.2043 27.8801 32.5011 29.1205 34.7657 31.3939L32.0475 33.9161Z" fill="#087EA4"/>
</g>
</svg>
