<svg width="75" height="75" viewBox="0 0 75 75" fill="none" xmlns="http://www.w3.org/2000/svg">
<mask id="mask0_6_28" style="mask-type:alpha" maskUnits="userSpaceOnUse" x="0" y="4" width="75" height="69">
<path d="M1.91487 45.6651L13.497 65.8046V65.7799C14.7591 67.9606 16.5696 69.7713 18.7478 71.0315C20.926 72.2916 23.3957 72.9572 25.9105 72.9617H49.0895C51.6044 72.9577 54.0743 72.2923 56.2526 71.0321C58.4309 69.7719 60.2413 67.9609 61.5031 65.7799L73.0851 45.6651C74.3397 43.4796 75 41.0023 75 38.4808C75 35.9593 74.3397 33.482 73.0851 31.2966L61.5031 11.1818C60.24 8.99859 58.4273 7.18619 56.2462 5.92585C54.0651 4.6655 51.5922 4.00141 49.0747 4H25.9105C23.3957 4.0045 20.926 4.67002 18.7478 5.93019C16.5696 7.19035 14.7591 9.0011 13.497 11.1818L1.91487 31.2966C0.660299 33.482 0 35.9593 0 38.4808C0 41.0023 0.660299 43.4796 1.91487 45.6651Z" fill="#00DC82"/>
</mask>
<g mask="url(#mask0_6_28)">
<path d="M1.91487 45.6651L13.497 65.8046V65.7799C14.7591 67.9606 16.5696 69.7713 18.7478 71.0315C20.926 72.2916 23.3957 72.9572 25.9105 72.9617H49.0895C51.6044 72.9577 54.0743 72.2923 56.2526 71.0321C58.4309 69.7719 60.2413 67.9609 61.5031 65.7799L73.0851 45.6651C74.3397 43.4796 75 41.0023 75 38.4808C75 35.9593 74.3397 33.482 73.0851 31.2966L61.5031 11.1818C60.24 8.99859 58.4273 7.18619 56.2462 5.92585C54.0651 4.6655 51.5922 4.00141 49.0747 4H25.9105C23.3957 4.0045 20.926 4.67002 18.7478 5.93019C16.5696 7.19035 14.7591 9.0011 13.497 11.1818L1.91487 31.2966C0.660299 33.482 0 35.9593 0 38.4808C0 41.0023 0.660299 43.4796 1.91487 45.6651Z" fill="#087EA4"/>
<path opacity="0.3" d="M-1.08513 45.6651L10.497 65.8046V65.7799C11.7591 67.9606 13.5696 69.7713 15.7478 71.0315C17.926 72.2916 20.3957 72.9572 22.9105 72.9617H46.0895C48.6044 72.9577 51.0743 72.2923 53.2526 71.0321C55.4309 69.7719 57.2413 67.9609 58.5031 65.7799L70.0851 45.6651C71.3397 43.4796 72 41.0023 72 38.4808C72 35.9593 71.3397 33.482 70.0851 31.2966L58.5031 11.1818C57.24 8.99859 55.4273 7.18619 53.2462 5.92585C51.0651 4.6655 48.5922 4.00141 46.0747 4H22.9105C20.3957 4.00449 17.926 4.67002 15.7478 5.93019C13.5696 7.19035 11.7591 9.0011 10.497 11.1818L-1.08513 31.2966C-2.3397 33.482 -3 35.9593 -3 38.4808C-3 41.0023 -2.3397 43.4796 -1.08513 45.6651Z" fill="white"/>
<path d="M54 52.2308C47.1 52.2308 38 57 38 57V30.7692C38 30.7692 47 26 56 26L54 52.2308Z" fill="#3392B1"/>
<path d="M21.1111 52.3846C28.3944 52.3846 38 57 38 57V31.6154C38 31.6154 28.5 27 19 27L21.1111 52.3846Z" fill="#087EA4"/>
</g>
</svg>
