<svg width="75" height="75" viewBox="0 0 75 75" fill="none" xmlns="http://www.w3.org/2000/svg">
<mask id="mask0_6_39" style="mask-type:alpha" maskUnits="userSpaceOnUse" x="0" y="4" width="75" height="69">
<path d="M1.91487 45.6651L13.497 65.8046V65.7799C14.7591 67.9606 16.5696 69.7713 18.7478 71.0315C20.926 72.2916 23.3957 72.9572 25.9105 72.9617H49.0895C51.6044 72.9577 54.0743 72.2923 56.2526 71.0321C58.4309 69.7719 60.2413 67.9609 61.5031 65.7799L73.0851 45.6651C74.3397 43.4796 75 41.0023 75 38.4808C75 35.9593 74.3397 33.482 73.0851 31.2966L61.5031 11.1818C60.24 8.99859 58.4273 7.18619 56.2462 5.92585C54.0651 4.6655 51.5922 4.00141 49.0747 4H25.9105C23.3957 4.0045 20.926 4.67002 18.7478 5.93019C16.5696 7.19035 14.7591 9.0011 13.497 11.1818L1.91487 31.2966C0.660299 33.482 0 35.9593 0 38.4808C0 41.0023 0.660299 43.4796 1.91487 45.6651Z" fill="#00DC82"/>
</mask>
<g mask="url(#mask0_6_39)">
<path d="M1.91487 45.6651L13.497 65.8046V65.7799C14.7591 67.9606 16.5696 69.7713 18.7478 71.0315C20.926 72.2916 23.3957 72.9572 25.9105 72.9617H49.0895C51.6044 72.9577 54.0743 72.2923 56.2526 71.0321C58.4309 69.7719 60.2413 67.9609 61.5031 65.7799L73.0851 45.6651C74.3397 43.4796 75 41.0023 75 38.4808C75 35.9593 74.3397 33.482 73.0851 31.2966L61.5031 11.1818C60.24 8.99859 58.4273 7.18619 56.2462 5.92585C54.0651 4.6655 51.5922 4.00141 49.0747 4H25.9105C23.3957 4.0045 20.926 4.67002 18.7478 5.93019C16.5696 7.19035 14.7591 9.0011 13.497 11.1818L1.91487 31.2966C0.660299 33.482 0 35.9593 0 38.4808C0 41.0023 0.660299 43.4796 1.91487 45.6651Z" fill="#087EA4"/>
<path opacity="0.3" d="M-1.08513 45.6651L10.497 65.8046V65.7799C11.7591 67.9606 13.5696 69.7713 15.7478 71.0315C17.926 72.2916 20.3957 72.9572 22.9105 72.9617H46.0895C48.6044 72.9577 51.0743 72.2923 53.2526 71.0321C55.4309 69.7719 57.2413 67.9609 58.5031 65.7799L70.0851 45.6651C71.3397 43.4796 72 41.0023 72 38.4808C72 35.9593 71.3397 33.482 70.0851 31.2966L58.5031 11.1818C57.24 8.99859 55.4273 7.18619 53.2462 5.92585C51.0651 4.6655 48.5922 4.00141 46.0747 4H22.9105C20.3957 4.00449 17.926 4.67002 15.7478 5.93019C13.5696 7.19035 11.7591 9.0011 10.497 11.1818L-1.08513 31.2966C-2.3397 33.482 -3 35.9593 -3 38.4808C-3 41.0023 -2.3397 43.4796 -1.08513 45.6651Z" fill="white"/>
<path d="M62.7884 34.7392H41.261H41.2609V13.2116C40.1935 13.0727 39.1052 13 38 13C36.8946 13 35.8065 13.0727 34.7392 13.2116V34.739V34.7391H13.2116C13.0727 35.8065 13 36.8948 13 38C13 39.1054 13.0727 40.1935 13.2116 41.2608H34.739H34.7391V62.7884C35.8065 62.9273 36.8946 63 38 63C39.1052 63 40.1935 62.9274 41.2608 62.7884V41.261V41.2609H62.7884C62.9273 40.1935 63 39.1054 63 38C63 36.8948 62.9273 35.8065 62.7884 34.7392Z" fill="#087EA4"/>
<path d="M44.5218 44.5219L55.6776 55.6777C56.1907 55.1648 56.6802 54.6286 57.1472 54.0728L47.5962 44.5218H44.5218V44.5219Z" fill="#087EA4"/>
<path d="M31.4782 44.5219H31.478L20.3223 55.6776C20.8352 56.1907 21.3714 56.6802 21.9272 57.1472L31.4782 47.596V44.5219Z" fill="#087EA4"/>
<path d="M31.4782 31.4784V31.4782L20.3224 20.3223C19.8093 20.8352 19.3198 21.3714 18.8528 21.9272L28.4039 31.4783H31.4782V31.4784Z" fill="#087EA4"/>
<path d="M44.5218 31.4784L55.6777 20.3224C55.1648 19.8093 54.6286 19.3198 54.0728 18.8529L44.5218 28.404V31.4784V31.4784Z" fill="#087EA4"/>
</g>
</svg>
