<svg width="75" height="75" viewBox="0 0 75 75" fill="none" xmlns="http://www.w3.org/2000/svg">
<mask id="mask0_0_3" style="mask-type:alpha" maskUnits="userSpaceOnUse" x="0" y="4" width="75" height="69">
<path d="M1.91487 45.6651L13.497 65.8046V65.7799C14.7591 67.9606 16.5696 69.7713 18.7478 71.0315C20.926 72.2916 23.3957 72.9572 25.9105 72.9617H49.0895C51.6044 72.9577 54.0743 72.2923 56.2526 71.0321C58.4309 69.7719 60.2413 67.9609 61.5031 65.7799L73.0851 45.6651C74.3397 43.4796 75 41.0023 75 38.4808C75 35.9593 74.3397 33.482 73.0851 31.2966L61.5031 11.1818C60.24 8.99859 58.4273 7.18619 56.2462 5.92585C54.0651 4.6655 51.5922 4.00141 49.0747 4H25.9105C23.3957 4.0045 20.926 4.67002 18.7478 5.93019C16.5696 7.19035 14.7591 9.0011 13.497 11.1818L1.91487 31.2966C0.660299 33.482 0 35.9593 0 38.4808C0 41.0023 0.660299 43.4796 1.91487 45.6651Z" fill="#00DC82"/>
</mask>
<g mask="url(#mask0_0_3)">
<path d="M1.91487 45.6651L13.497 65.8046V65.7799C14.7591 67.9606 16.5696 69.7713 18.7478 71.0315C20.926 72.2916 23.3957 72.9572 25.9105 72.9617H49.0895C51.6044 72.9577 54.0743 72.2923 56.2526 71.0321C58.4309 69.7719 60.2413 67.9609 61.5031 65.7799L73.0851 45.6651C74.3397 43.4796 75 41.0023 75 38.4808C75 35.9593 74.3397 33.482 73.0851 31.2966L61.5031 11.1818C60.24 8.99859 58.4273 7.18619 56.2462 5.92585C54.0651 4.6655 51.5922 4.00141 49.0747 4H25.9105C23.3957 4.0045 20.926 4.67002 18.7478 5.93019C16.5696 7.19035 14.7591 9.0011 13.497 11.1818L1.91487 31.2966C0.660299 33.482 0 35.9593 0 38.4808C0 41.0023 0.660299 43.4796 1.91487 45.6651Z" fill="#087EA4"/>
<path opacity="0.3" d="M-1.08513 45.6651L10.497 65.8046V65.7799C11.7591 67.9606 13.5696 69.7713 15.7478 71.0315C17.926 72.2916 20.3957 72.9572 22.9105 72.9617H46.0895C48.6044 72.9577 51.0743 72.2923 53.2526 71.0321C55.4309 69.7719 57.2413 67.9609 58.5031 65.7799L70.0851 45.6651C71.3397 43.4796 72 41.0023 72 38.4808C72 35.9593 71.3397 33.482 70.0851 31.2966L58.5031 11.1818C57.24 8.99859 55.4273 7.18619 53.2462 5.92585C51.0651 4.6655 48.5922 4.00141 46.0747 4H22.9105C20.3957 4.00449 17.926 4.67002 15.7478 5.93019C13.5696 7.19035 11.7591 9.0011 10.497 11.1818L-1.08513 31.2966C-2.3397 33.482 -3 35.9593 -3 38.4808C-3 41.0023 -2.3397 43.4796 -1.08513 45.6651Z" fill="white"/>
</g>
<path d="M30.3375 22.825H38.825C39.8375 22.825 40.6687 22 40.6687 20.9812V20.9125C40.6687 19.9 39.8437 19.0688 38.825 19.0688H30.3375C29.325 19.0688 28.4937 19.8938 28.4937 20.9125V20.9812C28.4937 22 29.3188 22.825 30.3375 22.825Z" fill="#087EA4"/>
<path d="M34.1563 45.95H26.8125V43.6063H34.7625C36.225 39.8875 39.8375 37.25 44.075 37.25C45.5813 37.25 47 37.5938 48.2812 38.1875V23.5375C48.2812 22.1063 47.125 20.95 45.6937 20.95H42.35V20.9875C42.35 22.9313 40.775 24.5125 38.825 24.5125H30.3375C28.3938 24.5125 26.8125 22.9375 26.8125 20.9875V20.95H23.4688C22.0375 20.95 20.8813 22.1063 20.8813 23.5375V49.2125C20.8813 50.6438 22.0375 51.8 23.4688 51.8H35.1625C34.4625 50.4375 34.0625 48.8938 34.0625 47.2563C34.0625 46.8125 34.1 46.3813 34.1563 45.95ZM26.8125 30.6563H42.3438V33H26.8125V30.6563ZM26.8125 37.1313H34.975V39.475H26.8125V37.1313Z" fill="#087EA4"/>
<path d="M49.925 52.0375C51.0187 50.7 51.6312 49.0312 51.6312 47.2562C51.6312 43.0937 48.2437 39.7 44.075 39.7C39.9062 39.7 36.5188 43.0875 36.5188 47.2562C36.5188 51.425 39.9125 54.8125 44.075 54.8125C45.7687 54.8125 47.3687 54.2625 48.7062 53.225C48.7562 53.1875 48.8 53.1375 48.85 53.1L52.675 56.925L53.7437 55.8562L49.925 52.0375ZM47.7812 52.0312C46.7125 52.8625 45.4312 53.3 44.075 53.3C40.7437 53.3 38.0313 50.5875 38.0313 47.2562C38.0313 43.925 40.7437 41.2125 44.075 41.2125C47.4062 41.2125 50.1187 43.925 50.1187 47.2562C50.1187 49.1375 49.2625 50.875 47.7812 52.0312Z" fill="#087EA4"/>
</svg>
